# xmcd
#
# Track frame offsets:
# 150
# 13874
# 25644
# 42468
# 54269
# 70586
# 87250
# 100377
# 115989
# 127981
# 143472
# 158578
# 172538
# 186314
# 197542
# 209444
# 224442
# 239305
# 253959
# 264688
# 278804
# 293708
# 306912
# 321094
#
# Disc length: 4498 seconds
#
#
# Revision: 0
# Processed by: cddbd v1.5.2PL0 Copyright (c) Steve Scherf et al.
# Submitted via: FreeRIP 2.945 
#
DISCID=56119018
DTITLE=Cooper-JF1826 - Last-Mohicans11
DYEAR=1826
DGENRE=Native American
TTITLE0=LM 1101
TTITLE1=LM 1102
TTITLE2=LM 1103
TTITLE3=LM 1104
TTITLE4=LM 1105
TTITLE5=LM 1106
TTITLE6=LM 1107
TTITLE7=LM 1108
TTITLE8=LM 1109
TTITLE9=LM 1110
TTITLE10=LM 1111
TTITLE11=LM 1112
TTITLE12=LM 1113
TTITLE13=LM 1114
TTITLE14=LM 1115
TTITLE15=LM 1116
TTITLE16=LM 1117
TTITLE17=LM 1118
TTITLE18=LM 1119
TTITLE19=LM 1120
TTITLE20=LM 1121
TTITLE21=LM 1122
TTITLE22=LM 1123
TTITLE23=LM 1124
EXTD=The Last of the Mohicans Tantor Media\nby James Finimore Cooper 12 CDs\nread by William Costello native country
EXTT0=
EXTT1=
EXTT2=
EXTT3=
EXTT4=
EXTT5=
EXTT6=
EXTT7=
EXTT8=
EXTT9=
EXTT10=
EXTT11=
EXTT12=
EXTT13=
EXTT14=
EXTT15=
EXTT16=
EXTT17=
EXTT18=
EXTT19=
EXTT20=
EXTT21=
EXTT22=
EXTT23=
PLAYORDER=
